<svg xmlns="http://www.w3.org/2000/svg" xmlns:xlink="http://www.w3.org/1999/xlink" width="345" height="425" viewBox="0 0 345 425">
  <defs>
    <style>
      .cls-1 {
        fill: #002e6e;
      }

      .cls-2 {
        fill: none;
        stroke: #fefefe;
        stroke-width: 4px;
      }

      .cls-3 {
        filter: url(#Path_26);
      }
    </style>
    <filter id="Path_26" x="0" y="0" width="345" height="425" filterUnits="userSpaceOnUse">
      <feOffset dy="3" input="SourceAlpha"/>
      <feGaussianBlur stdDeviation="3" result="blur"/>
      <feFlood flood-opacity="0.161"/>
      <feComposite operator="in" in2="blur"/>
      <feComposite in="SourceGraphic"/>
    </filter>
  </defs>
  <g id="Group_317" data-name="Group 317" transform="translate(-1317 -702)">
    <g id="Group_316" data-name="Group 316">
      <g class="cls-3" transform="matrix(1, 0, 0, 1, 1317, 702)">
        <path id="Path_26-2" data-name="Path 26" class="cls-1" d="M27,0H380a27,27,0,0,1,27,27V300a27,27,0,0,1-27,27H27A27,27,0,0,1,0,300V27A27,27,0,0,1,27,0Z" transform="translate(336 6) rotate(90)"/>
      </g>
    </g>
    <g id="kometos" transform="translate(1446.5 940.75)">
      <g id="Group_44" data-name="Group 44" transform="translate(-1648.5 -575.5)">
        <line id="Line_1" data-name="Line 1" class="cls-2" x1="49" y2="49" transform="translate(1773.5 575.5)"/>
        <line id="Line_2" data-name="Line 2" class="cls-2" x1="8" y2="8.5" transform="translate(1758.5 632)"/>
      </g>
      <g id="Group_45" data-name="Group 45" transform="translate(-1626.5 -494)">
        <line id="Line_1-2" data-name="Line 1" class="cls-2" x1="49" y2="49" transform="translate(1773.5 575.5)"/>
        <line id="Line_2-2" data-name="Line 2" class="cls-2" x1="8" y2="8.5" transform="translate(1758.5 632)"/>
      </g>
      <g id="Group_46" data-name="Group 46" transform="translate(-1758.5 -531.5)">
        <line id="Line_1-3" data-name="Line 1" class="cls-2" x1="49" y2="49" transform="translate(1773.5 575.5)"/>
        <line id="Line_2-3" data-name="Line 2" class="cls-2" x1="8" y2="8.5" transform="translate(1758.5 632)"/>
      </g>
    </g>
    <g id="kometos-2" data-name="kometos" transform="translate(1338.5 772.5)">
      <g id="Group_44-2" data-name="Group 44" transform="translate(-1648.5 -575.5)">
        <line id="Line_1-4" data-name="Line 1" class="cls-2" x1="49" y2="49" transform="translate(1773.5 575.5)"/>
        <line id="Line_2-4" data-name="Line 2" class="cls-2" x1="8" y2="8.5" transform="translate(1758.5 632)"/>
      </g>
      <g id="Group_45-2" data-name="Group 45" transform="translate(-1626.5 -494)">
        <line id="Line_1-5" data-name="Line 1" class="cls-2" x1="49" y2="49" transform="translate(1773.5 575.5)"/>
        <line id="Line_2-5" data-name="Line 2" class="cls-2" x1="8" y2="8.5" transform="translate(1758.5 632)"/>
      </g>
      <g id="Group_46-2" data-name="Group 46" transform="translate(-1758.5 -531.5)">
        <line id="Line_1-6" data-name="Line 1" class="cls-2" x1="49" y2="49" transform="translate(1773.5 575.5)"/>
        <line id="Line_2-6" data-name="Line 2" class="cls-2" x1="8" y2="8.5" transform="translate(1758.5 632)"/>
      </g>
    </g>
    <g id="Group_113" data-name="Group 113" transform="translate(-186.5 257.25)">
      <line id="Line_1-7" data-name="Line 1" class="cls-2" x1="49" y2="49" transform="translate(1773.5 575.5)"/>
      <line id="Line_2-7" data-name="Line 2" class="cls-2" x1="8" y2="8.5" transform="translate(1758.5 632)"/>
    </g>
    <g id="kometos-3" data-name="kometos" transform="translate(1341.5 933.75)">
      <g id="Group_44-3" data-name="Group 44" transform="translate(-1758.5 -575.5)">
        <line id="Line_1-8" data-name="Line 1" class="cls-2" x1="49" y2="49" transform="translate(1773.5 575.5)"/>
        <line id="Line_2-8" data-name="Line 2" class="cls-2" x1="8" y2="8.5" transform="translate(1758.5 632)"/>
      </g>
      <g id="Group_45-3" data-name="Group 45" transform="translate(-1736.5 -494)">
        <line id="Line_1-9" data-name="Line 1" class="cls-2" x1="49" y2="49" transform="translate(1773.5 575.5)"/>
        <line id="Line_2-9" data-name="Line 2" class="cls-2" x1="8" y2="8.5" transform="translate(1758.5 632)"/>
      </g>
    </g>
  </g>
</svg>
